<mxfile host="app.diagrams.net" modified="2023-10-14T12:24:48.751Z" agent="Mozilla/5.0 (Windows NT 10.0; Win64; x64) AppleWebKit/537.36 (KHTML, like Gecko) Chrome/117.0.0.0 Safari/537.36" etag="3waBD84H0rc1Ca6bBFn7" version="22.0.4" type="device">
  <diagram name="Page-1" id="-zVVfjy1Gz6FUBMNZM__">
    <mxGraphModel dx="1400" dy="723" grid="1" gridSize="10" guides="1" tooltips="1" connect="1" arrows="1" fold="1" page="1" pageScale="1" pageWidth="850" pageHeight="1100" math="0" shadow="0">
      <root>
        <mxCell id="0" />
        <mxCell id="1" parent="0" />
        <mxCell id="2rsCxxd3iU3geD2XUMGO-1" value="Police Officer &lt;br/&gt;" style="rounded=1;whiteSpace=wrap;html=1;" vertex="1" parent="1">
          <mxGeometry x="150" y="260" width="120" height="60" as="geometry" />
        </mxCell>
        <mxCell id="2rsCxxd3iU3geD2XUMGO-5" value="" style="endArrow=none;html=1;rounded=0;" edge="1" parent="1">
          <mxGeometry width="50" height="50" relative="1" as="geometry">
            <mxPoint x="160" y="260" as="sourcePoint" />
            <mxPoint x="210" y="210" as="targetPoint" />
          </mxGeometry>
        </mxCell>
        <mxCell id="2rsCxxd3iU3geD2XUMGO-6" value="" style="endArrow=none;html=1;rounded=0;" edge="1" parent="1">
          <mxGeometry width="50" height="50" relative="1" as="geometry">
            <mxPoint x="110" y="370" as="sourcePoint" />
            <mxPoint x="160" y="320" as="targetPoint" />
          </mxGeometry>
        </mxCell>
        <mxCell id="2rsCxxd3iU3geD2XUMGO-7" value="" style="endArrow=none;html=1;rounded=0;" edge="1" parent="1">
          <mxGeometry width="50" height="50" relative="1" as="geometry">
            <mxPoint x="260" y="260" as="sourcePoint" />
            <mxPoint x="310" y="210" as="targetPoint" />
          </mxGeometry>
        </mxCell>
        <mxCell id="2rsCxxd3iU3geD2XUMGO-8" value="" style="endArrow=none;html=1;rounded=0;exitX=0.5;exitY=0;exitDx=0;exitDy=0;" edge="1" parent="1" source="2rsCxxd3iU3geD2XUMGO-12">
          <mxGeometry width="50" height="50" relative="1" as="geometry">
            <mxPoint x="200" y="370" as="sourcePoint" />
            <mxPoint x="250" y="320" as="targetPoint" />
          </mxGeometry>
        </mxCell>
        <mxCell id="2rsCxxd3iU3geD2XUMGO-9" value="PO_ID" style="ellipse;whiteSpace=wrap;html=1;" vertex="1" parent="1">
          <mxGeometry x="130" y="150" width="120" height="60" as="geometry" />
        </mxCell>
        <mxCell id="2rsCxxd3iU3geD2XUMGO-10" value="PO_name" style="ellipse;whiteSpace=wrap;html=1;" vertex="1" parent="1">
          <mxGeometry x="270" y="150" width="120" height="60" as="geometry" />
        </mxCell>
        <mxCell id="2rsCxxd3iU3geD2XUMGO-11" value="PO_rank" style="ellipse;whiteSpace=wrap;html=1;" vertex="1" parent="1">
          <mxGeometry x="10" y="360" width="120" height="60" as="geometry" />
        </mxCell>
        <mxCell id="2rsCxxd3iU3geD2XUMGO-12" value="PO_badgeNum" style="ellipse;whiteSpace=wrap;html=1;" vertex="1" parent="1">
          <mxGeometry x="200" y="365" width="120" height="60" as="geometry" />
        </mxCell>
        <mxCell id="2rsCxxd3iU3geD2XUMGO-13" value="Suspect &lt;br/&gt;" style="rounded=1;whiteSpace=wrap;html=1;" vertex="1" parent="1">
          <mxGeometry x="565" y="265" width="120" height="60" as="geometry" />
        </mxCell>
        <mxCell id="2rsCxxd3iU3geD2XUMGO-14" value="" style="endArrow=none;html=1;rounded=0;" edge="1" parent="1">
          <mxGeometry width="50" height="50" relative="1" as="geometry">
            <mxPoint x="575" y="265" as="sourcePoint" />
            <mxPoint x="625" y="215" as="targetPoint" />
          </mxGeometry>
        </mxCell>
        <mxCell id="2rsCxxd3iU3geD2XUMGO-15" value="" style="endArrow=none;html=1;rounded=0;exitX=1;exitY=0.5;exitDx=0;exitDy=0;entryX=0;entryY=0.5;entryDx=0;entryDy=0;" edge="1" parent="1" source="2rsCxxd3iU3geD2XUMGO-20" target="2rsCxxd3iU3geD2XUMGO-13">
          <mxGeometry width="50" height="50" relative="1" as="geometry">
            <mxPoint x="525" y="375" as="sourcePoint" />
            <mxPoint x="575" y="325" as="targetPoint" />
          </mxGeometry>
        </mxCell>
        <mxCell id="2rsCxxd3iU3geD2XUMGO-16" value="" style="endArrow=none;html=1;rounded=0;" edge="1" parent="1">
          <mxGeometry width="50" height="50" relative="1" as="geometry">
            <mxPoint x="675" y="265" as="sourcePoint" />
            <mxPoint x="725" y="215" as="targetPoint" />
          </mxGeometry>
        </mxCell>
        <mxCell id="2rsCxxd3iU3geD2XUMGO-17" value="" style="endArrow=none;html=1;rounded=0;" edge="1" parent="1">
          <mxGeometry width="50" height="50" relative="1" as="geometry">
            <mxPoint x="700" y="360" as="sourcePoint" />
            <mxPoint x="665" y="325" as="targetPoint" />
          </mxGeometry>
        </mxCell>
        <mxCell id="2rsCxxd3iU3geD2XUMGO-18" value="Sus_ID" style="ellipse;whiteSpace=wrap;html=1;" vertex="1" parent="1">
          <mxGeometry x="545" y="155" width="120" height="60" as="geometry" />
        </mxCell>
        <mxCell id="2rsCxxd3iU3geD2XUMGO-19" value="Sus_name" style="ellipse;whiteSpace=wrap;html=1;" vertex="1" parent="1">
          <mxGeometry x="685" y="155" width="120" height="60" as="geometry" />
        </mxCell>
        <mxCell id="2rsCxxd3iU3geD2XUMGO-20" value="Sus_address" style="ellipse;whiteSpace=wrap;html=1;" vertex="1" parent="1">
          <mxGeometry x="410" y="270" width="120" height="60" as="geometry" />
        </mxCell>
        <mxCell id="2rsCxxd3iU3geD2XUMGO-21" value="Sus_&lt;br/&gt;description &lt;br/&gt;" style="ellipse;whiteSpace=wrap;html=1;" vertex="1" parent="1">
          <mxGeometry x="660" y="360" width="120" height="60" as="geometry" />
        </mxCell>
        <mxCell id="2rsCxxd3iU3geD2XUMGO-40" value="Department Unit" style="rounded=1;whiteSpace=wrap;html=1;" vertex="1" parent="1">
          <mxGeometry x="575" y="790" width="120" height="60" as="geometry" />
        </mxCell>
        <mxCell id="2rsCxxd3iU3geD2XUMGO-41" value="" style="endArrow=none;html=1;rounded=0;" edge="1" parent="1">
          <mxGeometry width="50" height="50" relative="1" as="geometry">
            <mxPoint x="585" y="790" as="sourcePoint" />
            <mxPoint x="635" y="740" as="targetPoint" />
          </mxGeometry>
        </mxCell>
        <mxCell id="2rsCxxd3iU3geD2XUMGO-42" value="" style="endArrow=none;html=1;rounded=0;" edge="1" parent="1">
          <mxGeometry width="50" height="50" relative="1" as="geometry">
            <mxPoint x="640" y="920" as="sourcePoint" />
            <mxPoint x="650" y="850" as="targetPoint" />
          </mxGeometry>
        </mxCell>
        <mxCell id="2rsCxxd3iU3geD2XUMGO-43" value="" style="endArrow=none;html=1;rounded=0;" edge="1" parent="1">
          <mxGeometry width="50" height="50" relative="1" as="geometry">
            <mxPoint x="685" y="790" as="sourcePoint" />
            <mxPoint x="735" y="740" as="targetPoint" />
          </mxGeometry>
        </mxCell>
        <mxCell id="2rsCxxd3iU3geD2XUMGO-45" value="Dept_ID" style="ellipse;whiteSpace=wrap;html=1;" vertex="1" parent="1">
          <mxGeometry x="555" y="680" width="120" height="60" as="geometry" />
        </mxCell>
        <mxCell id="2rsCxxd3iU3geD2XUMGO-46" value="Dept_name" style="ellipse;whiteSpace=wrap;html=1;" vertex="1" parent="1">
          <mxGeometry x="695" y="680" width="120" height="60" as="geometry" />
        </mxCell>
        <mxCell id="2rsCxxd3iU3geD2XUMGO-47" value="Dept_location" style="ellipse;whiteSpace=wrap;html=1;" vertex="1" parent="1">
          <mxGeometry x="580" y="910" width="120" height="60" as="geometry" />
        </mxCell>
        <mxCell id="2rsCxxd3iU3geD2XUMGO-49" value="Case" style="rounded=1;whiteSpace=wrap;html=1;" vertex="1" parent="1">
          <mxGeometry x="150" y="790" width="120" height="60" as="geometry" />
        </mxCell>
        <mxCell id="2rsCxxd3iU3geD2XUMGO-50" value="" style="endArrow=none;html=1;rounded=0;exitX=0.346;exitY=0.01;exitDx=0;exitDy=0;entryX=0.5;entryY=1;entryDx=0;entryDy=0;exitPerimeter=0;" edge="1" parent="1" source="2rsCxxd3iU3geD2XUMGO-49" target="2rsCxxd3iU3geD2XUMGO-54">
          <mxGeometry width="50" height="50" relative="1" as="geometry">
            <mxPoint x="160" y="790" as="sourcePoint" />
            <mxPoint x="210" y="740" as="targetPoint" />
          </mxGeometry>
        </mxCell>
        <mxCell id="2rsCxxd3iU3geD2XUMGO-51" value="" style="endArrow=none;html=1;rounded=0;" edge="1" parent="1">
          <mxGeometry width="50" height="50" relative="1" as="geometry">
            <mxPoint x="110" y="900" as="sourcePoint" />
            <mxPoint x="160" y="850" as="targetPoint" />
          </mxGeometry>
        </mxCell>
        <mxCell id="2rsCxxd3iU3geD2XUMGO-52" value="" style="endArrow=none;html=1;rounded=0;entryX=0;entryY=0.5;entryDx=0;entryDy=0;exitX=1;exitY=0.5;exitDx=0;exitDy=0;" edge="1" parent="1" source="2rsCxxd3iU3geD2XUMGO-49" target="2rsCxxd3iU3geD2XUMGO-55">
          <mxGeometry width="50" height="50" relative="1" as="geometry">
            <mxPoint x="260" y="790" as="sourcePoint" />
            <mxPoint x="310" y="740" as="targetPoint" />
          </mxGeometry>
        </mxCell>
        <mxCell id="2rsCxxd3iU3geD2XUMGO-53" value="" style="endArrow=none;html=1;rounded=0;" edge="1" parent="1">
          <mxGeometry width="50" height="50" relative="1" as="geometry">
            <mxPoint x="200" y="900" as="sourcePoint" />
            <mxPoint x="250" y="850" as="targetPoint" />
          </mxGeometry>
        </mxCell>
        <mxCell id="2rsCxxd3iU3geD2XUMGO-54" value="C_Num" style="ellipse;whiteSpace=wrap;html=1;" vertex="1" parent="1">
          <mxGeometry x="120" y="670" width="120" height="60" as="geometry" />
        </mxCell>
        <mxCell id="2rsCxxd3iU3geD2XUMGO-55" value="C_&lt;br/&gt;status &lt;br/&gt;" style="ellipse;whiteSpace=wrap;html=1;" vertex="1" parent="1">
          <mxGeometry x="305" y="765" width="120" height="60" as="geometry" />
        </mxCell>
        <mxCell id="2rsCxxd3iU3geD2XUMGO-56" value="C_&lt;br/&gt;description &lt;br/&gt;" style="ellipse;whiteSpace=wrap;html=1;" vertex="1" parent="1">
          <mxGeometry x="10" y="890" width="120" height="60" as="geometry" />
        </mxCell>
        <mxCell id="2rsCxxd3iU3geD2XUMGO-57" value="C_Date" style="ellipse;whiteSpace=wrap;html=1;" vertex="1" parent="1">
          <mxGeometry x="160" y="890" width="120" height="60" as="geometry" />
        </mxCell>
        <mxCell id="2rsCxxd3iU3geD2XUMGO-58" value="" style="endArrow=none;html=1;rounded=0;exitX=1;exitY=0.5;exitDx=0;exitDy=0;entryX=0;entryY=0.5;entryDx=0;entryDy=0;" edge="1" parent="1" source="2rsCxxd3iU3geD2XUMGO-13" target="2rsCxxd3iU3geD2XUMGO-59">
          <mxGeometry width="50" height="50" relative="1" as="geometry">
            <mxPoint x="685" y="315" as="sourcePoint" />
            <mxPoint x="735" y="265" as="targetPoint" />
          </mxGeometry>
        </mxCell>
        <mxCell id="2rsCxxd3iU3geD2XUMGO-59" value="Sus_DateBirth" style="ellipse;whiteSpace=wrap;html=1;" vertex="1" parent="1">
          <mxGeometry x="730" y="250" width="120" height="80" as="geometry" />
        </mxCell>
        <mxCell id="2rsCxxd3iU3geD2XUMGO-60" value="" style="endArrow=none;html=1;rounded=0;exitX=0.5;exitY=0;exitDx=0;exitDy=0;" edge="1" parent="1" source="2rsCxxd3iU3geD2XUMGO-63">
          <mxGeometry width="50" height="50" relative="1" as="geometry">
            <mxPoint x="49.999999999999964" y="510" as="sourcePoint" />
            <mxPoint x="209.96" y="320" as="targetPoint" />
          </mxGeometry>
        </mxCell>
        <mxCell id="2rsCxxd3iU3geD2XUMGO-61" value="" style="endArrow=none;html=1;rounded=0;entryX=0.5;entryY=1;entryDx=0;entryDy=0;" edge="1" parent="1" source="2rsCxxd3iU3geD2XUMGO-65" target="2rsCxxd3iU3geD2XUMGO-62">
          <mxGeometry width="50" height="50" relative="1" as="geometry">
            <mxPoint x="150" y="810" as="sourcePoint" />
            <mxPoint x="70" y="600" as="targetPoint" />
          </mxGeometry>
        </mxCell>
        <mxCell id="2rsCxxd3iU3geD2XUMGO-62" value="work" style="rhombus;whiteSpace=wrap;html=1;" vertex="1" parent="1">
          <mxGeometry x="10" y="510" width="90" height="80" as="geometry" />
        </mxCell>
        <mxCell id="2rsCxxd3iU3geD2XUMGO-67" value="" style="endArrow=none;html=1;rounded=0;entryX=0.5;entryY=1;entryDx=0;entryDy=0;" edge="1" parent="1" target="2rsCxxd3iU3geD2XUMGO-65">
          <mxGeometry width="50" height="50" relative="1" as="geometry">
            <mxPoint x="150" y="810" as="sourcePoint" />
            <mxPoint x="55" y="590" as="targetPoint" />
          </mxGeometry>
        </mxCell>
        <mxCell id="2rsCxxd3iU3geD2XUMGO-65" value="n" style="text;html=1;strokeColor=none;fillColor=none;align=center;verticalAlign=middle;whiteSpace=wrap;rounded=0;rotation=0;" vertex="1" parent="1">
          <mxGeometry x="100" y="780" width="60" height="30" as="geometry" />
        </mxCell>
        <mxCell id="2rsCxxd3iU3geD2XUMGO-68" value="" style="endArrow=none;html=1;rounded=0;exitX=0.5;exitY=0;exitDx=0;exitDy=0;" edge="1" parent="1" source="2rsCxxd3iU3geD2XUMGO-62" target="2rsCxxd3iU3geD2XUMGO-63">
          <mxGeometry width="50" height="50" relative="1" as="geometry">
            <mxPoint x="55" y="510" as="sourcePoint" />
            <mxPoint x="209.96" y="320" as="targetPoint" />
          </mxGeometry>
        </mxCell>
        <mxCell id="2rsCxxd3iU3geD2XUMGO-63" value="m" style="text;html=1;strokeColor=none;fillColor=none;align=center;verticalAlign=middle;whiteSpace=wrap;rounded=0;" vertex="1" parent="1">
          <mxGeometry x="160" y="350" width="50" height="30" as="geometry" />
        </mxCell>
        <mxCell id="2rsCxxd3iU3geD2XUMGO-70" value="" style="endArrow=none;html=1;rounded=0;exitX=0.5;exitY=0;exitDx=0;exitDy=0;entryX=0.375;entryY=1.083;entryDx=0;entryDy=0;entryPerimeter=0;" edge="1" source="2rsCxxd3iU3geD2XUMGO-74" target="2rsCxxd3iU3geD2XUMGO-13" parent="1">
          <mxGeometry width="50" height="50" relative="1" as="geometry">
            <mxPoint x="415" y="510" as="sourcePoint" />
            <mxPoint x="569.96" y="320" as="targetPoint" />
          </mxGeometry>
        </mxCell>
        <mxCell id="2rsCxxd3iU3geD2XUMGO-71" value="involved &lt;br/&gt;" style="rhombus;whiteSpace=wrap;html=1;" vertex="1" parent="1">
          <mxGeometry x="510" y="480" width="90" height="80" as="geometry" />
        </mxCell>
        <mxCell id="2rsCxxd3iU3geD2XUMGO-72" value="" style="endArrow=none;html=1;rounded=0;entryX=0.5;entryY=1;entryDx=0;entryDy=0;exitX=0.5;exitY=0;exitDx=0;exitDy=0;" edge="1" source="2rsCxxd3iU3geD2XUMGO-73" target="2rsCxxd3iU3geD2XUMGO-71" parent="1">
          <mxGeometry width="50" height="50" relative="1" as="geometry">
            <mxPoint x="510" y="810" as="sourcePoint" />
            <mxPoint x="430" y="600" as="targetPoint" />
            <Array as="points">
              <mxPoint x="260" y="740" />
            </Array>
          </mxGeometry>
        </mxCell>
        <mxCell id="2rsCxxd3iU3geD2XUMGO-75" value="" style="endArrow=none;html=1;rounded=0;entryX=0.375;entryY=1.083;entryDx=0;entryDy=0;entryPerimeter=0;" edge="1" parent="1" source="2rsCxxd3iU3geD2XUMGO-71" target="2rsCxxd3iU3geD2XUMGO-74">
          <mxGeometry width="50" height="50" relative="1" as="geometry">
            <mxPoint x="415" y="510" as="sourcePoint" />
            <mxPoint x="610" y="330" as="targetPoint" />
          </mxGeometry>
        </mxCell>
        <mxCell id="2rsCxxd3iU3geD2XUMGO-74" value="m" style="text;html=1;strokeColor=none;fillColor=none;align=center;verticalAlign=middle;whiteSpace=wrap;rounded=0;" vertex="1" parent="1">
          <mxGeometry x="580" y="325" width="50" height="30" as="geometry" />
        </mxCell>
        <mxCell id="2rsCxxd3iU3geD2XUMGO-76" value="" style="endArrow=none;html=1;rounded=0;entryX=0.5;entryY=1;entryDx=0;entryDy=0;exitX=0.5;exitY=0;exitDx=0;exitDy=0;" edge="1" parent="1" source="2rsCxxd3iU3geD2XUMGO-49" target="2rsCxxd3iU3geD2XUMGO-73">
          <mxGeometry width="50" height="50" relative="1" as="geometry">
            <mxPoint x="210" y="790" as="sourcePoint" />
            <mxPoint x="415" y="590" as="targetPoint" />
          </mxGeometry>
        </mxCell>
        <mxCell id="2rsCxxd3iU3geD2XUMGO-73" value="n" style="text;html=1;strokeColor=none;fillColor=none;align=center;verticalAlign=middle;whiteSpace=wrap;rounded=0;rotation=0;" vertex="1" parent="1">
          <mxGeometry x="190" y="750" width="60" height="30" as="geometry" />
        </mxCell>
        <mxCell id="2rsCxxd3iU3geD2XUMGO-78" value="" style="endArrow=none;html=1;rounded=0;exitX=0;exitY=0.5;exitDx=0;exitDy=0;entryX=0.5;entryY=1;entryDx=0;entryDy=0;" edge="1" parent="1" source="2rsCxxd3iU3geD2XUMGO-83" target="2rsCxxd3iU3geD2XUMGO-79">
          <mxGeometry width="50" height="50" relative="1" as="geometry">
            <mxPoint x="560" y="820" as="sourcePoint" />
            <mxPoint x="400" y="590" as="targetPoint" />
            <Array as="points" />
          </mxGeometry>
        </mxCell>
        <mxCell id="2rsCxxd3iU3geD2XUMGO-79" value="belongs to" style="rhombus;whiteSpace=wrap;html=1;" vertex="1" parent="1">
          <mxGeometry x="320" y="485" width="130" height="70" as="geometry" />
        </mxCell>
        <mxCell id="2rsCxxd3iU3geD2XUMGO-81" value="" style="endArrow=none;html=1;rounded=0;entryX=1;entryY=0.5;entryDx=0;entryDy=0;exitX=0.5;exitY=0;exitDx=0;exitDy=0;" edge="1" parent="1" source="2rsCxxd3iU3geD2XUMGO-87" target="2rsCxxd3iU3geD2XUMGO-1">
          <mxGeometry width="50" height="50" relative="1" as="geometry">
            <mxPoint x="400" y="450" as="sourcePoint" />
            <mxPoint x="410" y="380" as="targetPoint" />
            <Array as="points" />
          </mxGeometry>
        </mxCell>
        <mxCell id="2rsCxxd3iU3geD2XUMGO-84" value="" style="endArrow=none;html=1;rounded=0;exitX=0;exitY=0.5;exitDx=0;exitDy=0;entryX=0.5;entryY=1;entryDx=0;entryDy=0;" edge="1" parent="1" source="2rsCxxd3iU3geD2XUMGO-40" target="2rsCxxd3iU3geD2XUMGO-83">
          <mxGeometry width="50" height="50" relative="1" as="geometry">
            <mxPoint x="575" y="820" as="sourcePoint" />
            <mxPoint x="385" y="555" as="targetPoint" />
            <Array as="points">
              <mxPoint x="575" y="830" />
            </Array>
          </mxGeometry>
        </mxCell>
        <mxCell id="2rsCxxd3iU3geD2XUMGO-83" value="1" style="text;html=1;strokeColor=none;fillColor=none;align=center;verticalAlign=middle;whiteSpace=wrap;rounded=0;" vertex="1" parent="1">
          <mxGeometry x="510" y="800" width="60" height="30" as="geometry" />
        </mxCell>
        <mxCell id="2rsCxxd3iU3geD2XUMGO-88" value="" style="endArrow=none;html=1;rounded=0;entryX=1;entryY=0.5;entryDx=0;entryDy=0;exitX=0.5;exitY=0;exitDx=0;exitDy=0;" edge="1" parent="1" source="2rsCxxd3iU3geD2XUMGO-79" target="2rsCxxd3iU3geD2XUMGO-87">
          <mxGeometry width="50" height="50" relative="1" as="geometry">
            <mxPoint x="385" y="485" as="sourcePoint" />
            <mxPoint x="270" y="290" as="targetPoint" />
            <Array as="points">
              <mxPoint x="310" y="300" />
            </Array>
          </mxGeometry>
        </mxCell>
        <mxCell id="2rsCxxd3iU3geD2XUMGO-87" value="m" style="text;html=1;strokeColor=none;fillColor=none;align=center;verticalAlign=middle;whiteSpace=wrap;rounded=0;" vertex="1" parent="1">
          <mxGeometry x="270" y="290" width="50" height="30" as="geometry" />
        </mxCell>
        <mxCell id="2rsCxxd3iU3geD2XUMGO-89" value="" style="endArrow=none;html=1;rounded=0;" edge="1" parent="1">
          <mxGeometry width="50" height="50" relative="1" as="geometry">
            <mxPoint x="135" y="190" as="sourcePoint" />
            <mxPoint x="245" y="190" as="targetPoint" />
          </mxGeometry>
        </mxCell>
        <mxCell id="2rsCxxd3iU3geD2XUMGO-90" value="" style="endArrow=none;html=1;rounded=0;" edge="1" parent="1">
          <mxGeometry width="50" height="50" relative="1" as="geometry">
            <mxPoint x="550" y="200" as="sourcePoint" />
            <mxPoint x="660" y="200" as="targetPoint" />
          </mxGeometry>
        </mxCell>
        <mxCell id="2rsCxxd3iU3geD2XUMGO-91" value="" style="endArrow=none;html=1;rounded=0;" edge="1" parent="1">
          <mxGeometry width="50" height="50" relative="1" as="geometry">
            <mxPoint x="125" y="709.3299999999999" as="sourcePoint" />
            <mxPoint x="235" y="709.3299999999999" as="targetPoint" />
          </mxGeometry>
        </mxCell>
        <mxCell id="2rsCxxd3iU3geD2XUMGO-92" value="" style="endArrow=none;html=1;rounded=0;" edge="1" parent="1">
          <mxGeometry width="50" height="50" relative="1" as="geometry">
            <mxPoint x="560" y="720" as="sourcePoint" />
            <mxPoint x="670" y="720" as="targetPoint" />
          </mxGeometry>
        </mxCell>
      </root>
    </mxGraphModel>
  </diagram>
</mxfile>
